<?xml version="1.0" standalone="no"?>
<!DOCTYPE svg PUBLIC "-//W3C//DTD SVG 20010904//EN"
 "http://www.w3.org/TR/2001/REC-SVG-20010904/DTD/svg10.dtd">
<svg version="1.0" xmlns="http://www.w3.org/2000/svg"
 width="260.000000pt" height="260.000000pt" viewBox="0 0 260.000000 260.000000"
 preserveAspectRatio="xMidYMid meet">
<metadata>
Created by potrace 1.14, written by Peter Selinger 2001-2017
</metadata>
<g transform="translate(0.000000,260.000000) scale(0.100000,-0.100000)"
fill="#000000" stroke="none">
<path d="M863 2435 c-12 -8 -24 -29 -28 -45 -13 -57 38 -99 94 -78 32 11 27
71 -6 76 -24 3 -32 -13 -11 -20 6 -2 8 -10 4 -16 -21 -34 -66 11 -46 47 22 41
82 34 99 -12 10 -27 -1 -58 -42 -119 -29 -42 -36 -48 -69 -48 -27 0 -38 4 -38
15 0 20 -34 19 -54 -1 -19 -18 -19 -20 -6 -45 11 -20 56 -27 62 -9 2 5 14 11
28 12 23 3 25 -1 28 -39 3 -42 2 -43 -27 -43 -21 0 -31 5 -31 15 0 9 -9 15
-23 15 -49 0 -64 -52 -21 -72 22 -10 28 -10 39 6 17 23 59 18 64 -9 2 -11 9
-24 17 -30 10 -8 11 -43 6 -169 l-7 -160 -95 -36 c-99 -38 -159 -66 -222 -107
-32 -20 -38 -29 -38 -58 0 -19 2 -35 4 -35 2 0 32 19 66 42 71 47 272 140 281
130 3 -4 4 -55 1 -113 l-4 -106 -67 -31 c-80 -37 -150 -102 -188 -174 -25 -48
-27 -62 -27 -153 2 -201 7 -245 27 -245 23 0 58 -19 74 -39 36 -47 -8 -125
-71 -125 -34 0 -36 -2 -36 -33 0 -19 -10 -62 -22 -96 -29 -84 -28 -179 1 -240
23 -46 77 -109 112 -127 15 -9 12 0 -14 37 -49 70 -67 123 -67 201 0 80 20
128 84 210 47 60 66 99 66 136 0 13 -23 70 -52 127 -51 102 -52 106 -53 194 0
72 4 99 22 137 30 65 102 132 183 171 80 38 80 37 80 195 0 60 4 102 9 96 4
-5 5 -145 1 -314 -5 -168 -11 -444 -15 -613 l-7 -308 -69 -31 c-62 -28 -80
-44 -63 -60 3 -3 28 7 57 23 50 27 138 60 201 74 18 4 25 9 18 14 -8 5 -13
171 -18 628 l-7 621 53 16 c150 45 440 91 665 107 88 6 171 15 185 20 37 14
-305 2 -478 -16 -127 -14 -365 -55 -408 -72 -12 -4 -14 21 -14 155 0 97 -4
163 -10 167 -7 4 -10 -52 -10 -159 0 -113 -3 -166 -11 -166 -8 0 -9 48 -4 165
6 121 5 165 -4 165 -8 0 -11 -50 -11 -170 0 -122 -3 -170 -12 -170 -8 0 -10
45 -5 170 3 94 2 170 -2 170 -12 0 -21 -105 -21 -236 0 -65 -4 -114 -9 -114
-6 0 -8 67 -4 173 4 126 3 176 -5 181 -26 16 -13 99 29 183 32 65 39 88 34
112 -13 60 -92 91 -142 56z m171 -1360 c4 -338 5 -619 1 -625 -3 -5 -13 -10
-22 -10 -14 0 -15 19 -10 182 4 99 7 381 7 625 0 243 4 443 8 443 5 0 12 -277
16 -615z m-44 -17 c-4 -462 -8 -610 -17 -619 -7 -7 -16 -10 -20 -6 -7 7 15
1212 23 1236 16 50 19 -71 14 -611z"/>
<path d="M1094 2275 c-4 -9 -19 -15 -35 -15 -36 0 -38 -16 -2 -25 15 -3 32
-14 39 -23 11 -15 14 -15 38 1 32 21 33 41 4 61 -28 20 -37 20 -44 1z"/>
<path d="M1090 2165 c0 -10 -11 -15 -35 -15 -19 0 -35 -4 -35 -9 0 -5 16 -12
35 -15 19 -4 35 -11 35 -16 0 -18 49 -10 60 9 13 25 13 27 -6 45 -20 20 -54
21 -54 1z"/>
</g>
</svg>
